PathFileType	4	(X/Y/Z)	D:\TRACE\v60_Jaco2_6-2-23\BothDRS_Motion2_4-platform.trc
DataRate	CameraRate	NumFrames	NumMarkers	Units	OrigDataRate	OrigDataStartFrame	OrigNumFrames
100.00	100.00	      72	5	mm	100.00	4688	      7500
Frame#	Time	Left_Front			Right_Front			Left_Aft			Right_Aft			Post			
		X1	Y1	Z1	X2	Y2	Z2	X3	Y3	Z3	X4	Y4	Z4	X5	Y5	Z5	

4688	46.870	-840.70911	-52.40256	-650.72723	729.77051	-50.96000	-655.93610	-748.41345	49.04115	480.30566	693.97278	50.08170	489.14752	-54.42537	1211.64026	-1099.96130	
4689	46.880	-839.70801	-52.64724	-650.68878	730.36310	-51.16899	-656.10925	-747.62323	49.11762	480.27332	694.50580	50.17667	489.04724	-53.77143	1211.31555	-1100.59338	
4690	46.890	-838.60083	-52.81608	-650.65631	731.04742	-51.29655	-656.10303	-746.77509	49.22419	480.23291	695.09113	50.07571	488.92148	-52.72602	1210.94006	-1101.61536	
4691	46.900	-838.05963	-52.78859	-650.50354	731.88013	-51.40802	-655.99243	-746.15765	49.30216	480.11774	695.91541	50.24470	489.02780	-52.12246	1210.57336	-1102.22437	
4692	46.910	-837.59619	-52.81556	-650.45380	732.52869	-51.42089	-655.99127	-745.52710	49.47353	480.05103	696.85602	50.47985	489.01465	-51.43088	1210.50452	-1103.04712	
4693	46.920	-836.80768	-52.84188	-650.61884	733.21912	-51.32191	-656.03607	-744.73993	49.51931	480.11270	697.44287	50.39291	488.95105	-50.65879	1210.48950	-1103.68518	
4694	46.930	-836.10480	-53.05848	-650.71417	734.01398	-51.37701	-656.07050	-744.09723	49.38338	480.08923	698.05804	50.35705	488.79462	-49.84585	1210.35425	-1104.48535	
4695	46.940	-835.13666	-52.86419	-650.64508	734.46326	-51.31398	-656.17554	-742.93134	48.70921	480.47604	699.14398	50.37107	488.95279	-49.10596	1210.32349	-1104.84216	
4696	46.950	-834.33905	-52.75122	-650.70673	735.50812	-51.18845	-656.12482	-742.55231	49.06750	480.09680	699.62274	50.28127	489.11337	-48.43384	1210.42432	-1105.25110	
4697	46.960	-833.69049	-52.40990	-650.52814	736.28998	-51.08065	-655.93085	-741.71729	48.99702	480.19241	700.42102	50.13991	489.04556	-47.37176	1210.68909	-1106.04236	
4698	46.970	-833.03308	-52.30080	-650.56573	737.04010	-50.71439	-655.96851	-740.69379	49.13034	480.18118	700.91278	49.75593	489.51465	-46.75214	1210.98035	-1106.39807	
4699	46.980	-831.89063	-52.03880	-650.68597	737.99945	-50.37181	-655.94727	-740.08325	48.84323	480.25412	702.27985	49.86593	489.15018	-45.85744	1211.41455	-1106.65857	
4700	46.990	-831.08453	-51.87428	-650.56268	738.96649	-50.09860	-656.02795	-739.09924	48.50692	480.21985	702.98804	49.77439	489.25854	-45.05410	1211.62097	-1107.00916	
4701	47.000	-830.19775	-51.44047	-650.39563	739.57983	-50.06755	-655.99780	-738.30920	48.50845	480.36841	703.78900	49.41302	489.27979	-43.88707	1212.12341	-1107.01428	
4702	47.010	-829.53485	-51.14912	-650.46399	740.52130	-49.60528	-655.60571	-737.56378	48.26714	480.39166	704.61273	49.27779	489.47070	-43.10820	1212.58057	-1107.11450	
4703	47.020	-828.64996	-50.99660	-650.23993	741.39551	-48.92551	-655.67670	-736.54547	48.02111	480.62494	705.25751	48.65036	489.40842	-42.11311	1213.42639	-1107.17004	
4704	47.030	-827.69812	-50.83681	-650.17871	742.30133	-48.68161	-655.80682	-735.65247	47.67432	480.70325	706.70844	48.43863	489.67444	-41.32648	1214.09509	-1107.49280	
4705	47.040	-826.71613	-50.05585	-650.09473	743.45856	-48.18810	-655.54565	-734.75317	47.20063	480.98877	707.36401	48.19706	489.79828	-39.98055	1214.97437	-1107.00452	
4706	47.050	-825.83533	-49.41288	-650.03058	744.19720	-47.36109	-655.63416	-733.79987	46.68864	481.04642	708.23138	47.57905	489.94250	-38.93944	1215.80957	-1106.73633	
4707	47.060	-824.74628	-48.43783	-650.03424	745.38312	-46.82034	-655.32965	-732.72565	46.62032	481.33252	709.53619	47.43248	490.27399	-38.51570	1217.16028	-1106.27466	
4708	47.070	-823.86969	-48.03030	-650.11993	746.30133	-45.98592	-655.36914	-732.00104	46.32801	481.48926	710.03369	46.71603	490.22418	-36.98426	1217.96069	-1105.74915	
4709	47.080	-822.93268	-47.39397	-649.88336	747.30280	-45.35571	-655.15460	-730.88416	45.62776	481.58060	711.18359	46.51117	490.62250	-36.06746	1218.88489	-1104.87732	
4710	47.090	-822.07611	-47.01190	-649.72552	747.91022	-44.87604	-655.19031	-729.85547	45.05931	481.70245	712.23590	45.91966	490.68634	-35.25497	1220.05652	-1104.42834	
4711	47.100	-821.09534	-46.24957	-649.62567	749.07922	-44.05941	-655.16321	-729.13007	44.60187	481.98727	713.55847	45.85964	491.30692	-34.26274	1221.16309	-1103.17798	
4712	47.110	-819.97632	-45.53035	-649.65967	750.21869	-43.46072	-654.91754	-727.87231	44.12181	482.16852	714.38947	45.17731	491.13263	-33.56059	1221.96667	-1101.83374	
4713	47.120	-818.81604	-44.62102	-649.54449	751.00909	-42.84464	-654.82635	-726.95801	43.95829	482.39551	715.07404	44.66385	491.34561	-32.09111	1223.17383	-1100.78394	
4714	47.130	-817.98712	-44.14499	-649.27765	752.29309	-42.01169	-654.65991	-725.91028	43.60821	482.60626	716.34735	44.25669	491.41025	-31.19589	1224.35437	-1099.60046	
4715	47.140	-817.03430	-43.36839	-649.24200	753.33405	-41.24160	-654.86328	-724.66736	42.94147	482.86206	717.39606	43.75965	491.76175	-30.49193	1225.41296	-1097.63525	
4716	47.150	-815.71210	-42.74541	-649.21246	754.52258	-40.27380	-654.19159	-723.89197	42.27409	482.96970	718.23694	43.04708	491.88361	-29.04300	1226.93140	-1095.96338	
4717	47.160	-814.70496	-41.91506	-649.10870	755.11530	-40.21332	-654.24701	-722.85535	41.74973	483.17389	719.43939	42.66218	492.17966	-27.91908	1228.17358	-1094.01050	
4718	47.170	-813.80078	-40.89225	-649.05237	756.51917	-38.69066	-654.33185	-721.74103	41.11808	483.47079	720.13947	41.82653	492.24634	-26.92786	1229.74365	-1092.08911	
4719	47.180	-812.71631	-39.90223	-648.75635	757.16522	-38.09423	-653.99860	-720.77991	40.52622	483.70889	721.54926	41.39124	492.56671	-25.98282	1231.43347	-1089.77441	
4720	47.190	-811.57306	-39.04177	-648.60828	758.53815	-36.77929	-653.81708	-719.69550	39.90989	483.98053	722.48669	40.69282	492.82147	-25.18964	1232.98999	-1087.59961	
4721	47.200	-810.55273	-38.29834	-648.39349	759.64020	-36.33448	-653.71497	-718.61530	39.31851	484.31085	723.60614	40.03119	493.13290	-24.21941	1234.48230	-1084.94604	
4722	47.210	-809.49188	-36.93056	-648.26233	760.81775	-34.73458	-653.37048	-717.45734	38.55080	484.68457	724.72449	39.09998	493.52386	-22.64704	1236.37708	-1082.27539	
4723	47.220	-808.33118	-35.80672	-647.97772	761.96155	-33.74645	-653.28577	-716.23090	37.74469	484.91806	725.86249	38.51596	493.87021	-21.46650	1238.25806	-1079.75061	
4724	47.230	-806.99548	-34.92728	-647.60834	763.00964	-32.39190	-653.21124	-715.26105	37.15703	485.00806	727.22229	37.87329	494.52487	-20.48747	1240.14355	-1076.93396	
4725	47.240	-805.99054	-33.50970	-647.68121	764.20477	-31.38088	-652.90033	-714.02826	36.31666	485.49753	728.20221	36.85727	494.80630	-19.72071	1242.25842	-1073.96411	
4726	47.250	-804.88580	-32.36748	-647.41663	765.18530	-30.04559	-652.78870	-713.54346	36.23432	485.03983	729.36896	36.06960	495.10757	-18.37007	1244.03589	-1070.84839	
4727	47.260	-803.82831	-31.63619	-647.26453	766.45471	-28.97070	-652.31232	-712.56995	35.59568	485.36963	730.17981	35.24066	495.43839	-17.18083	1246.03760	-1067.43481	
4728	47.270	-802.29492	-30.87445	-647.04468	767.31805	-27.99643	-652.44659	-711.07068	34.52118	485.67523	731.74524	34.46355	495.74707	-16.08853	1247.85767	-1064.12390	
4729	47.280	-801.59558	-28.61303	-646.90967	768.81226	-26.67402	-651.83539	-710.16772	33.60348	486.11145	732.79535	33.83815	496.14999	-15.16125	1249.99048	-1060.36121	
4730	47.290	-800.53741	-27.17668	-646.60144	769.54504	-25.48905	-651.91949	-709.02344	32.96474	486.51581	733.78491	33.05169	496.60385	-14.17882	1252.03577	-1057.06543	
4731	47.300	-799.51434	-26.19371	-646.42902	770.89539	-24.47875	-651.71790	-707.76074	31.98655	486.82452	735.08789	31.93917	496.75122	-12.90830	1253.86438	-1053.33618	
4732	47.310	-798.20966	-24.71656	-646.21014	772.30176	-22.96372	-651.32983	-706.74860	31.19551	487.15576	735.95770	30.98520	496.88626	-12.21828	1256.07434	-1049.34595	
4733	47.320	-797.09509	-23.49535	-645.86212	772.53632	-21.92435	-651.40216	-705.47345	30.38551	487.68466	737.24182	30.14827	497.39011	-10.92523	1257.96655	-1045.83899	
4734	47.330	-796.01666	-22.40081	-645.75507	774.17377	-20.52232	-651.03101	-704.39587	29.48102	488.03094	738.06458	29.40609	497.83533	-9.81959	1259.97485	-1041.77405	
4735	47.340	-794.92029	-21.01165	-645.47931	775.29877	-19.54134	-650.87347	-703.21381	28.65358	488.38159	739.51184	28.60991	498.04602	-8.92322	1262.35986	-1037.56873	
4736	47.350	-793.80005	-19.80361	-645.18829	776.28796	-18.10487	-650.52136	-702.29828	27.87141	488.46957	739.67401	26.97180	498.45093	-7.63790	1264.34961	-1033.36548	
4737	47.360	-792.49744	-18.32050	-644.74115	777.69415	-16.51850	-650.11774	-701.30450	27.05270	488.79239	741.21014	26.06554	499.04190	-6.24726	1266.67615	-1029.38171	
4738	47.370	-791.56122	-16.40732	-644.37000	778.69904	-15.09535	-649.90393	-699.14606	24.77824	490.23264	742.67725	25.17713	499.41766	-5.36242	1269.42419	-1024.68726	
4739	47.380	-790.35193	-15.09501	-644.22949	779.78400	-13.87179	-649.78680	-697.86536	23.42089	491.07581	743.78784	24.19503	499.82449	-4.34574	1271.63342	-1020.25482	
4740	47.390	-789.00000	-13.67905	-644.01929	780.94122	-12.09910	-649.25372	-696.95251	23.03172	490.57047	744.88568	23.05717	500.08521	-3.25275	1274.19019	-1015.89404	
4741	47.400	-787.99976	-12.03701	-643.69812	782.04700	-10.63346	-649.05530	-695.95746	22.07713	490.88171	745.93323	22.13831	500.43890	-2.34193	1276.14429	-1011.06525	
4742	47.410	-787.03082	-10.75469	-643.30353	783.02777	-9.33591	-648.90375	-694.90875	21.11580	491.40686	747.07709	21.24468	500.90652	-1.39326	1278.66992	-1006.29468	
4743	47.420	-786.03876	-9.16336	-643.15405	784.21729	-7.86888	-648.45898	-693.56238	20.06910	491.71234	748.30176	19.90379	501.32727	-0.06081	1280.73181	-1001.09235	
4744	47.430	-784.51617	-7.74677	-642.84473	785.32727	-6.28101	-648.10162	-692.69897	19.27518	492.08044	749.52124	19.04317	501.60852	1.18821	1282.99951	-996.42194	
4745	47.440	-783.39484	-6.48689	-642.52155	786.46783	-5.04604	-648.01556	-691.39703	18.00996	492.39914	750.41449	18.05704	501.85236	1.93302	1285.49683	-992.05670	
4746	47.450	-782.49896	-4.60639	-642.36987	787.59296	-3.35463	-647.50385	-690.43732	17.33242	492.69019	751.62244	16.99265	502.32803	3.08875	1287.68237	-988.78094	
4747	47.460	-781.58746	-3.25420	-641.77411	788.70172	-2.00886	-647.16479	-689.27148	16.13145	493.08469	752.70386	16.01051	502.80081	4.51496	1289.86536	-985.99365	
4748	47.470	-780.28351	-2.00994	-641.50507	789.88556	-0.26008	-646.76929	-688.26318	15.39049	493.30240	753.74591	14.86244	503.34830	5.22518	1292.07642	-983.85956	
4749	47.480	-779.16058	-0.22594	-641.33875	790.79272	1.08746	-646.81116	-687.10510	14.04473	493.83115	755.06030	13.85281	503.57733	6.80773	1294.27441	-982.19946	
4750	47.490	-778.00562	1.27040	-640.92145	791.88202	2.47347	-646.29718	-686.06989	12.96222	494.19293	755.70306	12.57244	503.85272	8.23396	1296.57092	-980.55994	
4751	47.500	-777.17358	3.02092	-640.54681	793.10382	4.24544	-645.84766	-684.94244	11.93118	494.50894	757.02136	11.46514	504.19241	9.10792	1299.01050	-978.61011	
4752	47.510	-776.06873	4.61561	-640.26624	794.00250	5.90452	-645.50629	-683.88995	10.69059	494.97025	758.02313	10.27926	504.69067	10.29580	1301.44128	-976.56250	
4753	47.520	-774.67499	5.93270	-639.70593	795.14948	7.32389	-645.09198	-682.97162	9.84665	495.30731	759.52686	9.20686	504.86002	10.87606	1303.83984	-974.36218	
4754	47.530	-773.77582	7.70689	-639.30573	796.25513	9.15014	-644.88898	-681.67993	8.42807	495.77350	760.30219	8.11186	505.26953	12.23811	1306.14685	-971.96307	
4755	47.540	-772.78162	9.27120	-639.05737	797.30139	10.70137	-644.29144	-680.90851	7.67516	495.90808	761.40094	7.17038	505.60214	13.39896	1308.38354	-969.59888	
4756	47.550	-771.89478	10.86648	-638.76093	798.29608	12.04351	-644.01410	-679.70068	6.31022	496.29849	762.55603	5.93939	505.98550	14.73155	1310.98621	-966.73425	
4757	47.560	-770.76239	12.60507	-638.29065	799.28345	13.74155	-643.61139	-678.81342	5.39500	496.56445	763.35883	4.71929	506.35199	15.66214	1313.20801	-963.69580	
4758	47.570	-769.61224	13.84988	-637.95093	800.23523	15.31177	-643.43353	-677.83051	4.40102	497.03055	764.31812	3.64858	506.73694	16.55418	1315.60095	-960.62622	
4759	47.580	-768.73517	15.52170	-637.62457	801.29980	16.74066	-643.01910	-676.46222	3.01478	497.52081	765.33575	2.56295	506.98792	17.82471	1317.68066	-957.41620	
